<svg width="100" height="100" viewBox="0 0 100 100" fill="none" xmlns="http://www.w3.org/2000/svg">
<g clip-path="url(#clip0_2494_4645)">
<path d="M33.3335 29.1667C33.3335 33.5869 35.0894 37.8262 38.215 40.9518C41.3407 44.0774 45.5799 45.8333 50.0002 45.8333C54.4204 45.8333 58.6597 44.0774 61.7853 40.9518C64.9109 37.8262 66.6668 33.5869 66.6668 29.1667C66.6668 24.7464 64.9109 20.5072 61.7853 17.3816C58.6597 14.2559 54.4204 12.5 50.0002 12.5C45.5799 12.5 41.3407 14.2559 38.215 17.3816C35.0894 20.5072 33.3335 24.7464 33.3335 29.1667Z" stroke="#BAC3D1" stroke-width="8" stroke-linecap="round" stroke-linejoin="round"/>
<path d="M25 87.5V79.1667C25 74.7464 26.7559 70.5072 29.8816 67.3816C33.0072 64.256 37.2464 62.5 41.6667 62.5H43.75" stroke="#BAC3D1" stroke-width="8" stroke-linecap="round" stroke-linejoin="round"/>
<path d="M75.0007 91.6651L88.959 77.9818C89.815 77.1511 90.4958 76.1574 90.9615 75.0593C91.4271 73.9612 91.6679 72.781 91.6699 71.5882C91.6718 70.3955 91.4348 69.2145 90.9728 68.1149C90.5107 67.0152 89.8331 66.0193 88.9798 65.1859C87.2387 63.4832 84.9015 62.5277 82.4662 62.523C80.0308 62.5183 77.69 63.4649 75.9423 65.1609L75.009 66.0776L74.0798 65.1609C72.3389 63.4594 70.0026 62.5047 67.5682 62.5C65.1339 62.4953 62.7939 63.4411 61.0465 65.1359C60.1902 65.9663 59.509 66.9597 59.0431 68.0577C58.5771 69.1557 58.3358 70.3358 58.3335 71.5286C58.3312 72.7213 58.5678 73.9024 59.0295 75.0022C59.4912 76.102 60.1685 77.0981 61.0215 77.9318L75.0007 91.6651Z" stroke="#BAC3D1" stroke-width="8" stroke-linecap="round" stroke-linejoin="round"/>
</g>
<defs>
<clipPath id="clip0_2494_4645">
<rect width="100" height="100" fill="white"/>
</clipPath>
</defs>
</svg>
