<svg width="100" height="100" viewBox="0 0 100 100" fill="none" xmlns="http://www.w3.org/2000/svg">
<g clip-path="url(#clip0_1445_15646)">
<path d="M33.3333 29.1667C33.3333 33.5869 35.0893 37.8262 38.2149 40.9518C41.3405 44.0774 45.5797 45.8333 50 45.8333C54.4203 45.8333 58.6595 44.0774 61.7851 40.9518C64.9107 37.8262 66.6666 33.5869 66.6666 29.1667C66.6666 24.7464 64.9107 20.5072 61.7851 17.3816C58.6595 14.2559 54.4203 12.5 50 12.5C45.5797 12.5 41.3405 14.2559 38.2149 17.3816C35.0893 20.5072 33.3333 24.7464 33.3333 29.1667Z" stroke="#BAC3D1" stroke-width="8" stroke-linecap="round" stroke-linejoin="round"/>
<path d="M25 87.5V79.1667C25 74.7464 26.7559 70.5072 29.8816 67.3816C33.0072 64.256 37.2464 62.5 41.6667 62.5H43.75" stroke="#BAC3D1" stroke-width="8" stroke-linecap="round" stroke-linejoin="round"/>
<path d="M75.0005 91.6651L88.9588 77.9818C89.8148 77.1511 90.4957 76.1574 90.9613 75.0593C91.4269 73.9612 91.6678 72.781 91.6697 71.5882C91.6716 70.3955 91.4346 69.2145 90.9726 68.1149C90.5106 67.0152 89.8329 66.0193 88.9796 65.1859C87.2385 63.4832 84.9013 62.5277 82.466 62.523C80.0306 62.5183 77.6898 63.4649 75.9421 65.1609L75.0088 66.0776L74.0796 65.1609C72.3387 63.4594 70.0024 62.5047 67.5681 62.5C65.1337 62.4953 62.7937 63.4411 61.0463 65.1359C60.1901 65.9663 59.5089 66.9597 59.0429 68.0577C58.5769 69.1557 58.3357 70.3358 58.3333 71.5286C58.331 72.7213 58.5677 73.9024 59.0293 75.0022C59.491 76.102 60.1683 77.0981 61.0213 77.9318L75.0005 91.6651Z" stroke="#BAC3D1" stroke-width="1.5" stroke-linecap="round" stroke-linejoin="round"/>
</g>
<defs>
<clipPath id="clip0_1445_15646">
<rect width="100" height="100" fill="white"/>
</clipPath>
</defs>
</svg>
