<svg width="100" height="101" viewBox="0 0 100 101" fill="none" xmlns="http://www.w3.org/2000/svg">
<g clip-path="url(#clip0_2581_14036)">
<path d="M12.5 50.7798C12.5 55.7044 13.47 60.5807 15.3545 65.1304C17.2391 69.6801 20.0013 73.8141 23.4835 77.2963C26.9657 80.7785 31.0997 83.5407 35.6494 85.4253C40.1991 87.3098 45.0754 88.2798 50 88.2798C54.9246 88.2798 59.8009 87.3098 64.3506 85.4253C68.9003 83.5407 73.0343 80.7785 76.5165 77.2963C79.9987 73.8141 82.7609 69.6801 84.6455 65.1304C86.53 60.5807 87.5 55.7044 87.5 50.7798C87.5 45.8552 86.53 40.9789 84.6455 36.4292C82.7609 31.8794 79.9987 27.7455 76.5165 24.2633C73.0343 20.7811 68.9003 18.0189 64.3506 16.1343C59.8009 14.2498 54.9246 13.2798 50 13.2798C45.0754 13.2798 40.1991 14.2498 35.6494 16.1343C31.0997 18.0189 26.9657 20.7811 23.4835 24.2633C20.0013 27.7455 17.2391 31.8794 15.3545 36.4292C13.47 40.9789 12.5 45.8552 12.5 50.7798Z" stroke="#BAC3D1" style="stroke:#BAC3D1;stroke:color(display-p3 0.7294 0.7647 0.8196);stroke-opacity:1;" stroke-width="8" stroke-linecap="round" stroke-linejoin="round"/>
<path d="M41.6667 42.4463L58.3334 59.113M58.3334 42.4463L41.6667 59.113" stroke="#BAC3D1" style="stroke:#BAC3D1;stroke:color(display-p3 0.7294 0.7647 0.8196);stroke-opacity:1;" stroke-width="8" stroke-linecap="round" stroke-linejoin="round"/>
</g>
<defs>
<clipPath id="clip0_2581_14036">
<rect width="100" height="100" fill="white" style="fill:white;fill-opacity:1;" transform="translate(0 0.779785)"/>
</clipPath>
</defs>
</svg>
