<svg width="17" height="17" viewBox="0 0 17 17" fill="none" xmlns="http://www.w3.org/2000/svg">
<g clip-path="url(#clip0_1106_125178)">
<path d="M16.354 4.81529C16.2707 4.84819 16.1846 4.86289 16.0999 4.86289C15.8199 4.86289 15.5553 4.69419 15.4475 4.41699L14.6677 2.41849C12.1078 7.84489 7.47594 11.4947 0.881938 13.2762C0.821038 13.2923 0.759438 13.3 0.699238 13.3C0.390538 13.3 0.107738 13.0949 0.0237382 12.7827C-0.0770618 12.4096 0.143438 12.0253 0.517238 11.9238C6.71854 10.2487 11.0571 6.82849 13.4322 1.75139L11.2818 2.58999C10.9199 2.73139 10.5153 2.55149 10.3753 2.19239C10.2346 1.83189 10.4131 1.42659 10.7729 1.28589L13.8536 0.0839905C14.5235 -0.179209 15.2872 0.155391 15.5504 0.827391L16.7523 3.90809C16.893 4.26859 16.7145 4.67389 16.3547 4.81459L16.354 4.81529ZM15.3999 5.59999C15.0135 5.59999 14.6999 5.91289 14.6999 6.29999V16.1C14.6999 16.4871 15.0135 16.8 15.3999 16.8C15.7863 16.8 16.0999 16.4871 16.0999 16.1V6.29999C16.0999 5.91289 15.7863 5.59999 15.3999 5.59999ZM11.8999 9.09999C11.5135 9.09999 11.1999 9.41289 11.1999 9.79999V16.1C11.1999 16.4871 11.5135 16.8 11.8999 16.8C12.2863 16.8 12.5999 16.4871 12.5999 16.1V9.79999C12.5999 9.41289 12.2863 9.09999 11.8999 9.09999ZM8.39994 11.9C8.01354 11.9 7.69994 12.2129 7.69994 12.6V16.1C7.69994 16.4871 8.01354 16.8 8.39994 16.8C8.78634 16.8 9.09994 16.4871 9.09994 16.1V12.6C9.09994 12.2129 8.78634 11.9 8.39994 11.9ZM4.89994 13.3C4.51354 13.3 4.19994 13.6129 4.19994 14V16.1C4.19994 16.4871 4.51354 16.8 4.89994 16.8C5.28634 16.8 5.59994 16.4871 5.59994 16.1V14C5.59994 13.6129 5.28634 13.3 4.89994 13.3ZM1.39994 14.7C1.01354 14.7 0.699938 15.0129 0.699938 15.4V16.1C0.699938 16.4871 1.01354 16.8 1.39994 16.8C1.78634 16.8 2.09994 16.4871 2.09994 16.1V15.4C2.09994 15.0129 1.78634 14.7 1.39994 14.7ZM-6.17955e-05 4.19999C-6.17955e-05 1.88369 1.88364 -9.48366e-06 4.19994 -9.48366e-06C6.51624 -9.48366e-06 8.39994 1.88369 8.39994 4.19999C8.39994 6.51629 6.51624 8.39999 4.19994 8.39999C1.88364 8.39999 -6.17955e-05 6.51629 -6.17955e-05 4.19999ZM2.79994 2.79999C2.79994 3.57349 3.42644 4.19999 4.19994 4.19999C4.97344 4.19999 5.59994 3.57349 5.59994 2.79999C5.59994 2.02649 4.97344 1.39999 4.19994 1.39999C3.42644 1.39999 2.79994 2.02649 2.79994 2.79999ZM2.12374 6.06199C2.63684 6.63319 3.37254 6.99999 4.19994 6.99999C5.02734 6.99999 5.76304 6.63319 6.27614 6.06199C5.84354 5.36689 5.07914 4.89999 4.19994 4.89999C3.32074 4.89999 2.55634 5.36689 2.12374 6.06199Z" fill="currentColor"/>
</g>
<defs>
<clipPath id="clip0_1106_125178">
<rect width="16.8" height="16.8" fill="white"/>
</clipPath>
</defs>
</svg>
