<svg width="17" height="17" viewBox="0 0 17 17" fill="none" xmlns="http://www.w3.org/2000/svg">
<path d="M16.8 16.1C16.8 16.4864 16.4864 16.8 16.1 16.8H2.1C0.9422 16.8 0 15.8578 0 14.7V0.7C0 0.3136 0.3136 0 0.7 0C1.0864 0 1.4 0.3136 1.4 0.7V14.7C1.4 15.0857 1.7143 15.4 2.1 15.4H16.1C16.4864 15.4 16.8 15.7136 16.8 16.1ZM14.7 3.5H11.9C11.5136 3.5 11.2 3.8136 11.2 4.2C11.2 4.5864 11.5136 4.9 11.9 4.9H14.3941L10.9942 8.1949C10.7303 8.4595 10.269 8.4595 10.0051 8.1949C9.9764 8.1669 9.1378 7.5698 9.1378 7.5698C8.3412 6.8187 6.9839 6.8467 6.2244 7.6055L3.0142 10.6953C2.7356 10.9634 2.7272 11.4065 2.9953 11.6851C3.1332 11.8279 3.3159 11.9 3.5 11.9C3.675 11.9 3.85 11.8349 3.9851 11.7047L7.2051 8.6051C7.469 8.3405 7.9303 8.3405 8.1942 8.6051C8.2229 8.6331 9.0615 9.2302 9.0615 9.2302C9.8588 9.982 11.2147 9.9554 11.9763 9.1924L15.3993 5.8744V8.3993C15.3993 8.7857 15.7129 9.0993 16.0993 9.0993C16.4857 9.0993 16.7993 8.7857 16.7993 8.3993V5.5993C16.7993 4.4415 15.8571 3.4993 14.6993 3.4993L14.7 3.5Z" fill="currentColor"/>
</svg>
