<svg
	width="100"
	height="101"
	viewBox="0 0 100 101"
	fill="none"
	xmlns="http://www.w3.org/2000/svg"
>
	<g clip-path="url(#clip0_2581_13759)" stroke="currentColor" stroke-opacity="1">
		<path
			d="M12.5 42.4465C12.5 46.2767 13.2544 50.0694 14.7202 53.6081C16.1859 57.1467 18.3343 60.362 21.0427 63.0704C23.7511 65.7788 26.9664 67.9272 30.5051 69.3929C34.0437 70.8587 37.8364 71.6131 41.6667 71.6131C45.4969 71.6131 49.2896 70.8587 52.8283 69.3929C56.3669 67.9272 59.5822 65.7788 62.2906 63.0704C64.999 60.362 67.1474 57.1467 68.6132 53.6081C70.0789 50.0694 70.8333 46.2767 70.8333 42.4465C70.8333 38.6162 70.0789 34.8235 68.6132 31.2849C67.1474 27.7462 64.999 24.5309 62.2906 21.8225C59.5822 19.1141 56.3669 16.9657 52.8283 15.5C49.2896 14.0342 45.4969 13.2798 41.6667 13.2798C37.8364 13.2798 34.0437 14.0342 30.5051 15.5C26.9664 16.9657 23.7511 19.1141 21.0427 21.8225C18.3343 24.5309 16.1859 27.7462 14.7202 31.2849C13.2544 34.8235 12.5 38.6162 12.5 42.4465Z"
			stroke-width="8"
			stroke-linecap="round"
			stroke-linejoin="round"
		/>
		<path
			d="M87.5 88.2798L62.5 63.2798"
			stroke-width="8"
			stroke-linecap="round"
			stroke-linejoin="round"
		/>
		<path
			d="M33.5 33.7798C33.5 32.1885 34.2371 30.6624 35.549 29.5371C36.861 28.4119 38.6404 27.7798 40.4958 27.7798H42.4946C44.35 27.7798 46.1294 28.4119 47.4414 29.5371C48.7533 30.6624 49.4904 32.1885 49.4904 33.7798C49.564 35.0783 49.2139 36.3656 48.4929 37.4477C47.7719 38.5299 46.719 39.3483 45.4928 39.7798C44.2666 40.355 43.2137 41.4463 42.4927 42.8892C41.7717 44.3321 41.4216 46.0484 41.4952 47.7798"
			stroke-width="6"
			stroke-linecap="round"
			stroke-linejoin="round"
		/>
		<path
			d="M41.769 57.1646C41.769 57.1646 41.769 57.1781 41.769 57.1869"
			stroke-width="6"
			stroke-linecap="round"
			stroke-linejoin="round"
		/>
	</g>
	<defs>
		<clipPath id="clip0_2581_13759">
			<rect
				width="100"
				height="100"
				fill="white"
				transform="translate(0 0.779785)"
			/>
		</clipPath>
	</defs>
</svg>
