<svg width="18" height="18" viewBox="0 0 18 18" fill="none" xmlns="http://www.w3.org/2000/svg">
<path d="M9.82856 12.0466C10.0895 12.196 9.99955 12.5584 9.69417 12.5842C9.56007 12.5953 9.42358 12.5998 9.28168 12.5998C6.83018 12.5998 4.90936 10.4917 5.51144 8.1233C5.95722 6.37076 7.74004 5.26079 9.67437 5.41409C9.68547 5.41499 9.69657 5.41589 9.70766 5.41679C10.0056 5.44289 10.0817 5.80738 9.82736 5.95317C8.7249 6.58525 7.80004 7.70842 7.80004 8.99958C7.80004 10.2907 8.7255 11.4145 9.82856 12.0466ZM10.4249 10.3681L11.102 9.91515L11.7905 10.3636C11.8793 10.4212 11.9951 10.4167 12.0797 10.3522C12.164 10.2874 12.1979 10.1764 12.1643 10.0756L11.9198 9.33046L12.5111 8.84868C12.5914 8.78118 12.6208 8.67049 12.5848 8.57179C12.5488 8.47309 12.455 8.40739 12.35 8.40739H11.5997L11.3342 7.66252C11.2979 7.56472 11.2043 7.49992 11.0999 7.49992C10.9955 7.49992 10.9019 7.56472 10.8656 7.66252L10.6001 8.40739H9.84986C9.74486 8.40739 9.65127 8.47279 9.61527 8.57119C9.57897 8.66959 9.60807 8.77998 9.68817 8.84778L10.2824 9.33136L10.0473 10.0852C10.0155 10.1863 10.0509 10.2967 10.1357 10.3603C10.1801 10.3936 10.2326 10.4101 10.2857 10.4101C10.3343 10.4101 10.3826 10.396 10.4246 10.3678L10.4249 10.3681Z" fill="currentColor"/>
<path d="M14.4826 3.75676C14.4826 3.62455 14.3754 3.51734 14.2432 3.51734H11.2904L9.19319 1.42011C9.09967 1.32664 8.94812 1.32664 8.8546 1.42011L6.75745 3.51734H3.75673C3.62453 3.51734 3.51731 3.62455 3.51731 3.75676V6.70963L1.42011 8.80686C1.3266 8.90038 1.3266 9.05198 1.42011 9.14545L3.51731 11.2426V14.2434C3.51731 14.3756 3.62453 14.4828 3.75673 14.4828H6.75745L8.85465 16.58C8.90143 16.6268 8.96267 16.6501 9.02396 16.6501C9.08526 16.6501 9.1465 16.6268 9.19328 16.58L11.2904 14.4828H14.2432C14.3754 14.4828 14.4826 14.3756 14.4826 14.2434V11.2426L16.5798 9.14541C16.6734 9.05189 16.6734 8.90029 16.5798 8.80682L14.4826 6.70963V3.75676ZM16.0719 8.97613L14.0739 10.9742C14.029 11.0191 14.0038 11.08 14.0038 11.1435V14.004H11.1912C11.1277 14.004 11.0668 14.0292 11.0219 14.0741L9.02392 16.0721L7.02588 14.0741C6.98097 14.0292 6.92011 14.004 6.85657 14.004H3.99615V11.1435C3.99615 11.08 3.97091 11.0191 3.92605 10.9742L1.92801 8.97613L3.92605 6.97807C3.97096 6.93316 3.99615 6.8723 3.99615 6.80875V3.99618H6.85661C6.92011 3.99618 6.98102 3.97095 7.02593 3.92608L9.02392 1.92802L11.022 3.92608C11.0669 3.97099 11.1277 3.99618 11.1913 3.99618H14.0038V6.8088C14.0038 6.8723 14.029 6.9332 14.0739 6.97812L16.0719 8.97613Z" fill="currentColor"/>
<path d="M14.8052 3.44832C14.8052 3.30834 14.6917 3.19482 14.5517 3.19482H11.4252L9.2046 0.97422C9.10558 0.875252 8.94512 0.875252 8.8461 0.97422L6.62558 3.19482H3.44835C3.30837 3.19482 3.19485 3.30834 3.19485 3.44832V6.57489L0.974287 8.79549C0.87527 8.89451 0.87527 9.05503 0.974287 9.154L3.19485 11.3745V14.5518C3.19485 14.6918 3.30837 14.8053 3.44835 14.8053H6.62558L8.84615 17.0259C8.89568 17.0754 8.96053 17.1001 9.02542 17.1001C9.09032 17.1001 9.15517 17.0754 9.2047 17.0259L11.4252 14.8053H14.5517C14.6917 14.8053 14.8052 14.6918 14.8052 14.5518V11.3745L17.0258 9.15395C17.1248 9.05493 17.1248 8.89441 17.0258 8.79544L14.8052 6.57489V3.44832ZM16.488 8.97472L14.3724 11.0903C14.3249 11.1379 14.2982 11.2023 14.2982 11.2696V14.2983H11.3202C11.2529 14.2983 11.1884 14.325 11.1409 14.3725L9.02537 16.4881L6.90981 14.3725C6.86225 14.325 6.79781 14.2983 6.73053 14.2983H3.70186V11.2695C3.70186 11.2023 3.67514 11.1378 3.62763 11.0903L1.51206 8.97472L3.62763 6.85912C3.67519 6.81156 3.70186 6.74712 3.70186 6.67984V3.70183H6.73058C6.79781 3.70183 6.8623 3.67511 6.90986 3.6276L9.02537 1.512L11.1409 3.6276C11.1885 3.67516 11.2529 3.70183 11.3202 3.70183H14.2982V6.6799C14.2982 6.74712 14.3249 6.81162 14.3724 6.85917L16.488 8.97472Z" fill="currentColor"/>
<path d="M15.1277 3.13991C15.1277 2.99215 15.0079 2.87233 14.8601 2.87233H11.5599L9.21595 0.528362C9.11143 0.423896 8.94205 0.423896 8.83753 0.528362L6.49366 2.87233H3.13992C2.99216 2.87233 2.87233 2.99215 2.87233 3.13991V6.44018L0.528401 8.78415C0.423883 8.88867 0.423883 9.0581 0.528401 9.16257L2.87233 11.5065V14.8603C2.87233 15.008 2.99216 15.1279 3.13992 15.1279H6.49366L8.83759 17.4718C8.88987 17.5241 8.95832 17.5502 9.02682 17.5502C9.09533 17.5502 9.16377 17.5241 9.21606 17.4718L11.5599 15.1279H14.8601C15.0079 15.1279 15.1277 15.008 15.1277 14.8603V11.5065L17.4716 9.16252C17.5761 9.058 17.5761 8.88856 17.4716 8.78409L15.1277 6.44018V3.13991ZM16.904 8.97333L14.6709 11.2065C14.6207 11.2567 14.5925 11.3247 14.5925 11.3957V14.5927H11.449C11.3781 14.5927 11.31 14.6209 11.2598 14.671L9.02677 16.9042L6.79367 14.671C6.74347 14.6208 6.67545 14.5927 6.60444 14.5927H3.4075V11.3956C3.4075 11.3247 3.3793 11.2566 3.32915 11.2064L1.09605 8.97333L3.32915 6.7402C3.37935 6.69 3.4075 6.62198 3.4075 6.55096V3.4075H6.60449C6.67545 3.4075 6.74353 3.3793 6.79373 3.32915L9.02677 1.09602L11.2599 3.32915C11.3101 3.37935 11.3781 3.4075 11.4491 3.4075H14.5925V6.55102C14.5925 6.62198 14.6207 6.69006 14.6709 6.74026L16.904 8.97333Z" fill="currentColor"/>
<path d="M17.938 8.85065L15.4201 6.3327V2.79098C15.4201 2.67436 15.3255 2.57979 15.2089 2.57979H11.6672L9.1493 0.0618368C9.06681 -0.0206123 8.93313 -0.0206123 8.85064 0.0618368L6.33267 2.57979H2.79098C2.67436 2.57979 2.57979 2.67436 2.57979 2.79098V6.3327L0.0618679 8.85065C-0.0206226 8.93314 -0.0206226 9.06686 0.0618679 9.14931L2.57979 11.6673V15.209C2.57979 15.3256 2.67436 15.4202 2.79098 15.4202H6.33267L8.85059 17.9382C8.89186 17.9794 8.94588 18 8.99995 18C9.05401 18 9.10804 17.9794 9.1493 17.9382L11.6672 15.4202H15.2089C15.3255 15.4202 15.4201 15.3256 15.4201 15.209V11.6673L17.938 9.14935C18.0205 9.06686 18.0205 8.93314 17.938 8.85065ZM15.0596 11.4305C15.0199 11.4701 14.9977 11.5238 14.9977 11.5798V14.9978H11.5798C11.5237 14.9978 11.47 15.0201 11.4304 15.0597L8.99995 17.4901L6.5695 15.0597C6.52988 15.02 6.47619 14.9978 6.42014 14.9978H3.00217V11.5798C3.00217 11.5238 2.97991 11.4701 2.94034 11.4305L0.509885 9L2.94034 6.56953C2.97995 6.52991 3.00217 6.47622 3.00217 6.42017V3.00217H6.42014C6.47615 3.00217 6.52988 2.97991 6.5695 2.94033L8.99995 0.509858L11.4304 2.94033C11.47 2.97995 11.5237 3.00217 11.5798 3.00217H14.9977V6.42017C14.9977 6.47618 15.02 6.52991 15.0596 6.56953L17.49 9L15.0596 11.4305Z" fill="currentColor"/>
</svg>
