<svg width="18" height="18" viewBox="0 0 18 18" fill="none" xmlns="http://www.w3.org/2000/svg">
<g clip-path="url(#clip0_1106_125171)">
<path d="M9 0C7.7625 0 6.75 1.0125 6.75 2.25V15.75C6.75 16.9875 7.7625 18 9 18C10.2375 18 11.25 16.9875 11.25 15.75V2.25C11.25 1.0125 10.2375 0 9 0ZM9.75 15.75C9.75 16.1625 9.4125 16.5 9 16.5C8.5875 16.5 8.25 16.1625 8.25 15.75V2.25C8.25 1.8375 8.5875 1.5 9 1.5C9.4125 1.5 9.75 1.8375 9.75 2.25V15.75ZM15.75 4.5C14.5125 4.5 13.5 5.5125 13.5 6.75V15.75C13.5 16.9875 14.5125 18 15.75 18C16.9875 18 18 16.9875 18 15.75V6.75C18 5.5125 16.9875 4.5 15.75 4.5ZM16.5 15.75C16.5 16.1625 16.1625 16.5 15.75 16.5C15.3375 16.5 15 16.1625 15 15.75V6.75C15 6.3375 15.3375 6 15.75 6C16.1625 6 16.5 6.3375 16.5 6.75V15.75ZM2.25 9C1.0125 9 0 10.0125 0 11.25V15.75C0 16.9875 1.0125 18 2.25 18C3.4875 18 4.5 16.9875 4.5 15.75V11.25C4.5 10.0125 3.4875 9 2.25 9ZM3 15.75C3 16.1625 2.6625 16.5 2.25 16.5C1.8375 16.5 1.5 16.1625 1.5 15.75V11.25C1.5 10.8375 1.8375 10.5 2.25 10.5C2.6625 10.5 3 10.8375 3 11.25V15.75Z" fill="currentColor"/>
</g>
<defs>
<clipPath id="clip0_1106_125171">
<rect width="18" height="18" fill="white"/>
</clipPath>
</defs>
</svg>
