<svg width="68" height="58" viewBox="0 0 68 58" fill="none" xmlns="http://www.w3.org/2000/svg">
<mask id="mask0_1973_62058" style="mask-type:alpha" maskUnits="userSpaceOnUse" x="0" y="0" width="68" height="58">
<rect width="68" height="58" fill="#F5F8FF" style="fill:#F5F8FF;fill:color(display-p3 0.9608 0.9725 1.0000);fill-opacity:1;"/>
</mask>
<g mask="url(#mask0_1973_62058)">
<path d="M64.3163 41.0293L63.7073 41.3339L44.5198 50.8566L44.5232 52.0662L63.7108 42.5435L64.3197 42.2389L64.3163 41.0293Z" fill="url(#paint0_linear_1973_62058)" style=""/>
<path d="M43.2983 52.6725L43.2949 51.4629L24.0867 60.9974L24.0901 62.204L43.2983 52.6725Z" fill="url(#paint1_linear_1973_62058)" style=""/>
<path d="M64.2509 20.8481L63.6385 21.1528L44.4509 30.6755L44.4578 31.888L63.6454 22.3682L64.2543 22.0636L64.2509 20.8481Z" fill="url(#paint2_linear_1973_62058)" style=""/>
<path d="M43.2331 32.4972L43.2297 31.2817L24.0215 40.8163L24.0249 42.0288L43.2331 32.4972Z" fill="url(#paint3_linear_1973_62058)" style=""/>
<path d="M43.1642 11.7274L43.1676 12.3307L43.2296 31.2815L43.233 32.497L43.2949 51.4625L43.2984 52.6721L43.3603 71.6288L43.3637 72.2321L44.5885 71.6259L44.5851 71.0196L44.5232 52.0658L44.5197 50.8563L44.4578 31.8877L44.4509 30.6752L44.3924 11.7244L44.389 11.1182L43.1642 11.7274Z" fill="url(#paint4_linear_1973_62058)" style=""/>
<path d="M22.7312 21.866L22.7346 22.4723L22.7966 41.4231L22.8 42.6386L22.8619 61.6041L22.8688 62.8137L22.9308 81.7704V82.3737L24.1556 81.7675L24.1521 81.1642L24.0902 62.2045L24.0867 60.9979L24.0248 42.0293L24.0214 40.8168L23.956 21.8631V21.2598L22.7312 21.866Z" fill="url(#paint5_linear_1973_62058)" style=""/>
<path d="M3.60595 50.949L2.99353 51.2507L2.99697 52.4661L3.60939 52.1615L22.8004 42.6388L22.7969 41.4233L3.60595 50.949Z" fill="url(#paint6_linear_1973_62058)" style=""/>
<path d="M65.0083 62.0981L2.51889 93.109L2.31592 31.3947L64.8019 0.383789L65.0048 62.0981H65.0083ZM2.99713 52.466L3.6061 52.1614L3.67147 71.1299L3.05905 71.4345V72.6441L3.67491 72.3395L3.73684 91.2962L22.9278 81.7705V82.3738L24.1561 81.7675V81.1642L43.3608 71.6297V72.233L44.5891 71.6267V71.0234L63.7732 61.5007L63.7112 42.544L64.3236 42.2394V41.0298L63.7078 41.3344L63.6459 22.3688L64.2583 22.0642V20.8488L63.6424 21.1534L63.5805 2.20257L44.3964 11.7253V11.122L43.1681 11.7312V12.3345L23.96 21.8691V21.2658L22.7351 21.872V22.4753L3.54761 32.001L3.60954 50.9518L2.99713 51.2564V52.4689H3.00057L2.99713 52.466Z" fill="url(#paint7_linear_1973_62058)" style=""/>
<path style="mix-blend-mode:color-burn" opacity="0.5" d="M59.7471 50.8066L61.5534 51.3005C61.5534 51.3005 60.7724 52.3829 60.6795 53.1577C60.6382 53.5038 59.7643 52.9537 59.121 52.5337C59.176 51.9659 59.3997 51.3656 59.7471 50.8066Z" fill="url(#paint8_linear_1973_62058)" style=""/>
<path d="M59.1095 36.0351C59.1095 34.6659 60.2311 32.992 61.6211 32.3C62.3504 31.9392 63.0041 31.9303 63.4686 32.1935V32.1876L66.073 33.4563L62.5328 38.7352L59.8699 37.434C59.402 37.2122 59.1095 36.7301 59.1061 36.0351H59.1095Z" fill="url(#paint9_linear_1973_62058)" style=""/>
<path d="M66.8372 34.8549C66.8372 35.5824 66.5241 36.3957 66.0183 37.0995C65.9185 37.2415 65.8085 37.3805 65.6949 37.5106C65.3027 37.9601 64.8313 38.3387 64.3256 38.59C62.9356 39.2791 61.8072 38.7261 61.8003 37.3539C61.8003 35.9846 62.9184 34.3107 64.3084 33.6187C65.6949 32.9326 66.8303 33.4886 66.8337 34.8578L66.8372 34.8549Z" fill="url(#paint10_linear_1973_62058)" style=""/>
<path d="M61.5499 34.5441L59.9501 33.7752L47.8396 28.4756V28.5968L61.5499 34.5441Z" fill="url(#paint11_linear_1973_62058)" style=""/>
<path d="M47.8399 28.5962C47.7574 28.7441 47.7402 28.9659 47.6404 29.1078L61.2681 34.9782C61.3541 34.8303 61.447 34.6854 61.5502 34.5435L47.8399 28.5962Z" fill="url(#paint12_linear_1973_62058)" style=""/>
<path d="M42.349 29.5901L40.8765 28.9395L25.2017 45.616L26.657 46.2667L42.349 29.5901Z" fill="url(#paint13_linear_1973_62058)" style=""/>
<path style="mix-blend-mode:color-burn" opacity="0.5" d="M40.8765 28.9395L42.3491 29.5901L40.7217 31.3172L39.2595 30.6606L40.8765 28.9395Z" fill="url(#paint14_linear_1973_62058)" style=""/>
<path d="M42.349 29.5903L26.6604 46.2669C26.7327 46.3438 26.798 46.4325 26.8531 46.5331L42.5382 29.8595C42.4659 29.7796 42.404 29.6909 42.3524 29.5903H42.349Z" fill="url(#paint15_linear_1973_62058)" style=""/>
<path d="M40.6872 28.0888C40.6872 26.7196 41.8088 25.0457 43.1987 24.3537C43.9281 23.9929 44.5818 23.984 45.0462 24.2472V24.2413L47.6507 25.51L44.1104 30.7889L41.4475 29.4877C40.9796 29.2659 40.6872 28.7838 40.6837 28.0888H40.6872Z" fill="url(#paint16_linear_1973_62058)" style=""/>
<path d="M48.4145 26.9091C48.4145 27.6366 48.1015 28.4499 47.5957 29.1537C47.4959 29.2957 47.3858 29.4347 47.2723 29.5648C46.8801 30.0143 46.4087 30.3929 45.903 30.6442C44.513 31.3333 43.3846 30.7803 43.3777 29.4081C43.3777 28.0388 44.4958 26.3649 45.8858 25.6729C47.2723 24.9868 48.4077 25.5428 48.4111 26.912L48.4145 26.9091Z" fill="url(#paint17_linear_1973_62058)" style=""/>
<path d="M20.5623 49.2402C20.5623 47.871 21.6839 46.1971 23.0738 45.5051C23.8032 45.1443 24.4569 45.1354 24.9214 45.3986V45.3927L27.5258 46.6614L23.9856 51.9403L21.3226 50.639C20.8547 50.4172 20.5623 49.9352 20.5588 49.2402H20.5623Z" fill="url(#paint18_linear_1973_62058)" style=""/>
<path d="M28.2898 48.06C28.2898 48.7875 27.9767 49.6007 27.471 50.3046C27.3712 50.4466 27.2611 50.5856 27.1476 50.7157C26.7553 51.1652 26.284 51.5437 25.7782 51.7951C24.3883 52.4842 23.2598 51.9312 23.2529 50.5589C23.2529 49.1897 24.3711 47.5158 25.761 46.8238C27.1475 46.1377 28.2829 46.6937 28.2863 48.0629L28.2898 48.06Z" fill="url(#paint19_linear_1973_62058)" style=""/>
<path d="M22.1709 46.4255L20.5367 45.6507L7.80347 35.0574L8.14063 34.5576L22.1709 46.4255Z" fill="url(#paint20_linear_1973_62058)" style=""/>
<path d="M9.34806 35.5044C9.24829 35.6463 9.13819 35.7824 9.02466 35.9155L23.0549 47.7834C23.1547 47.6444 23.2648 47.5083 23.3783 47.3782L9.34806 35.5044Z" fill="url(#paint21_linear_1973_62058)" style=""/>
<path d="M3.47512 34.9492C3.47512 33.5799 4.59671 31.9061 5.98667 31.214C6.71605 30.8532 7.36974 30.8444 7.8342 31.1076V31.1017L10.4386 32.3704L6.8984 37.6493L4.23548 36.348C3.76757 36.1262 3.47512 35.6442 3.47168 34.9492H3.47512Z" fill="url(#paint22_linear_1973_62058)" style=""/>
<path d="M11.2026 33.7694C11.2026 34.4969 10.8896 35.3102 10.3838 36.0141C10.284 36.156 10.1739 36.295 10.0604 36.4251C9.66818 36.8747 9.19682 37.2532 8.69107 37.5046C7.30112 38.1936 6.17265 37.6406 6.16577 36.2684C6.16577 34.8991 7.28392 33.2253 8.67387 32.5333C10.0604 31.8471 11.1958 32.4031 11.1992 33.7724L11.2026 33.7694Z" fill="url(#paint23_linear_1973_62058)" style=""/>
</g>
<defs>
<linearGradient id="paint0_linear_1973_62058" x1="64.3197" y1="46.5477" x2="44.5198" y2="46.5477" gradientUnits="userSpaceOnUse">
<stop stop-color="#67C7ED" style="stop-color:#67C7ED;stop-color:color(display-p3 0.4039 0.7804 0.9294);stop-opacity:1;"/>
<stop offset="1" stop-color="#00ADEF" style="stop-color:#00ADEF;stop-color:color(display-p3 0.0000 0.6784 0.9373);stop-opacity:1;"/>
</linearGradient>
<linearGradient id="paint1_linear_1973_62058" x1="43.2983" y1="56.8335" x2="24.0867" y2="56.8335" gradientUnits="userSpaceOnUse">
<stop stop-color="#67C7ED" style="stop-color:#67C7ED;stop-color:color(display-p3 0.4039 0.7804 0.9294);stop-opacity:1;"/>
<stop offset="1" stop-color="#00ADEF" style="stop-color:#00ADEF;stop-color:color(display-p3 0.0000 0.6784 0.9373);stop-opacity:1;"/>
</linearGradient>
<linearGradient id="paint2_linear_1973_62058" x1="64.2543" y1="26.3695" x2="44.4509" y2="26.3695" gradientUnits="userSpaceOnUse">
<stop stop-color="#67C7ED" style="stop-color:#67C7ED;stop-color:color(display-p3 0.4039 0.7804 0.9294);stop-opacity:1;"/>
<stop offset="1" stop-color="#00ADEF" style="stop-color:#00ADEF;stop-color:color(display-p3 0.0000 0.6784 0.9373);stop-opacity:1;"/>
</linearGradient>
<linearGradient id="paint3_linear_1973_62058" x1="43.2331" y1="36.6553" x2="24.0215" y2="36.6553" gradientUnits="userSpaceOnUse">
<stop stop-color="#67C7ED" style="stop-color:#67C7ED;stop-color:color(display-p3 0.4039 0.7804 0.9294);stop-opacity:1;"/>
<stop offset="1" stop-color="#00ADEF" style="stop-color:#00ADEF;stop-color:color(display-p3 0.0000 0.6784 0.9373);stop-opacity:1;"/>
</linearGradient>
<linearGradient id="paint4_linear_1973_62058" x1="44.5885" y1="41.6766" x2="43.1642" y2="41.6766" gradientUnits="userSpaceOnUse">
<stop stop-color="#67C7ED" style="stop-color:#67C7ED;stop-color:color(display-p3 0.4039 0.7804 0.9294);stop-opacity:1;"/>
<stop offset="1" stop-color="#00ADEF" style="stop-color:#00ADEF;stop-color:color(display-p3 0.0000 0.6784 0.9373);stop-opacity:1;"/>
</linearGradient>
<linearGradient id="paint5_linear_1973_62058" x1="24.1556" y1="51.8153" x2="22.7312" y2="51.8153" gradientUnits="userSpaceOnUse">
<stop stop-color="#67C7ED" style="stop-color:#67C7ED;stop-color:color(display-p3 0.4039 0.7804 0.9294);stop-opacity:1;"/>
<stop offset="1" stop-color="#00ADEF" style="stop-color:#00ADEF;stop-color:color(display-p3 0.0000 0.6784 0.9373);stop-opacity:1;"/>
</linearGradient>
<linearGradient id="paint6_linear_1973_62058" x1="22.8004" y1="46.9447" x2="2.99353" y2="46.9447" gradientUnits="userSpaceOnUse">
<stop stop-color="#67C7ED" style="stop-color:#67C7ED;stop-color:color(display-p3 0.4039 0.7804 0.9294);stop-opacity:1;"/>
<stop offset="1" stop-color="#00ADEF" style="stop-color:#00ADEF;stop-color:color(display-p3 0.0000 0.6784 0.9373);stop-opacity:1;"/>
</linearGradient>
<linearGradient id="paint7_linear_1973_62058" x1="65.0048" y1="46.7464" x2="2.31248" y2="46.7464" gradientUnits="userSpaceOnUse">
<stop stop-color="#67C7ED" style="stop-color:#67C7ED;stop-color:color(display-p3 0.4039 0.7804 0.9294);stop-opacity:1;"/>
<stop offset="1" stop-color="#00ADEF" style="stop-color:#00ADEF;stop-color:color(display-p3 0.0000 0.6784 0.9373);stop-opacity:1;"/>
</linearGradient>
<linearGradient id="paint8_linear_1973_62058" x1="60.7586" y1="51.1822" x2="59.8828" y2="52.9448" gradientUnits="userSpaceOnUse">
<stop stop-color="#707070" style="stop-color:#707070;stop-color:color(display-p3 0.4392 0.4392 0.4392);stop-opacity:1;"/>
<stop offset="1" stop-color="white" style="stop-color:white;stop-opacity:1;"/>
</linearGradient>
<linearGradient id="paint9_linear_1973_62058" x1="59.1061" y1="32.347" x2="61.4962" y2="36.5156" gradientUnits="userSpaceOnUse">
<stop stop-color="#DCA931" style="stop-color:#DCA931;stop-color:color(display-p3 0.8623 0.6632 0.1913);stop-opacity:1;"/>
<stop offset="0.509615" stop-color="#DEB579" style="stop-color:#DEB579;stop-color:color(display-p3 0.8706 0.7098 0.4745);stop-opacity:1;"/>
<stop offset="1" stop-color="#B28E37" style="stop-color:#B28E37;stop-color:color(display-p3 0.6993 0.5570 0.2157);stop-opacity:1;"/>
</linearGradient>
<linearGradient id="paint10_linear_1973_62058" x1="61.8003" y1="33.6028" x2="66.8543" y2="38.87" gradientUnits="userSpaceOnUse">
<stop stop-color="#DCA931" style="stop-color:#DCA931;stop-color:color(display-p3 0.8623 0.6632 0.1913);stop-opacity:1;"/>
<stop offset="0.509615" stop-color="#DEB579" style="stop-color:#DEB579;stop-color:color(display-p3 0.8706 0.7098 0.4745);stop-opacity:1;"/>
<stop offset="1" stop-color="#B28E37" style="stop-color:#B28E37;stop-color:color(display-p3 0.6993 0.5570 0.2157);stop-opacity:1;"/>
</linearGradient>
<linearGradient id="paint11_linear_1973_62058" x1="47.8396" y1="28.779" x2="51.5381" y2="38.3949" gradientUnits="userSpaceOnUse">
<stop stop-color="#DCA931" style="stop-color:#DCA931;stop-color:color(display-p3 0.8623 0.6632 0.1913);stop-opacity:1;"/>
<stop offset="0.509615" stop-color="#DEB579" style="stop-color:#DEB579;stop-color:color(display-p3 0.8706 0.7098 0.4745);stop-opacity:1;"/>
<stop offset="1" stop-color="#B28E37" style="stop-color:#B28E37;stop-color:color(display-p3 0.6993 0.5570 0.2157);stop-opacity:1;"/>
</linearGradient>
<linearGradient id="paint12_linear_1973_62058" x1="47.6404" y1="28.9153" x2="51.6338" y2="38.9317" gradientUnits="userSpaceOnUse">
<stop stop-color="#DCA931" style="stop-color:#DCA931;stop-color:color(display-p3 0.8623 0.6632 0.1913);stop-opacity:1;"/>
<stop offset="0.509615" stop-color="#DEB579" style="stop-color:#DEB579;stop-color:color(display-p3 0.8706 0.7098 0.4745);stop-opacity:1;"/>
<stop offset="1" stop-color="#B28E37" style="stop-color:#B28E37;stop-color:color(display-p3 0.6993 0.5570 0.2157);stop-opacity:1;"/>
</linearGradient>
<linearGradient id="paint13_linear_1973_62058" x1="40.1314" y1="28.9838" x2="25.9151" y2="45.3263" gradientUnits="userSpaceOnUse">
<stop offset="0.00294329" stop-color="#DCA931" style="stop-color:#DCA931;stop-color:color(display-p3 0.8623 0.6632 0.1913);stop-opacity:1;"/>
<stop offset="0.509615" stop-color="#DEB579" style="stop-color:#DEB579;stop-color:color(display-p3 0.8706 0.7098 0.4745);stop-opacity:1;"/>
<stop offset="1" stop-color="#B28E37" style="stop-color:#B28E37;stop-color:color(display-p3 0.6993 0.5570 0.2157);stop-opacity:1;"/>
</linearGradient>
<linearGradient id="paint14_linear_1973_62058" x1="41.5646" y1="29.2529" x2="40.3554" y2="31.1297" gradientUnits="userSpaceOnUse">
<stop stop-color="#707070" style="stop-color:#707070;stop-color:color(display-p3 0.4392 0.4392 0.4392);stop-opacity:1;"/>
<stop offset="1" stop-color="white" style="stop-color:white;stop-opacity:1;"/>
</linearGradient>
<linearGradient id="paint15_linear_1973_62058" x1="26.6604" y1="30.4375" x2="42.0257" y2="47.0083" gradientUnits="userSpaceOnUse">
<stop stop-color="#DCA931" style="stop-color:#DCA931;stop-color:color(display-p3 0.8623 0.6632 0.1913);stop-opacity:1;"/>
<stop offset="0.509615" stop-color="#DEB579" style="stop-color:#DEB579;stop-color:color(display-p3 0.8706 0.7098 0.4745);stop-opacity:1;"/>
<stop offset="1" stop-color="#B28E37" style="stop-color:#B28E37;stop-color:color(display-p3 0.6993 0.5570 0.2157);stop-opacity:1;"/>
</linearGradient>
<linearGradient id="paint16_linear_1973_62058" x1="40.6837" y1="24.4007" x2="43.0738" y2="28.5693" gradientUnits="userSpaceOnUse">
<stop stop-color="#DCA931" style="stop-color:#DCA931;stop-color:color(display-p3 0.8623 0.6632 0.1913);stop-opacity:1;"/>
<stop offset="0.509615" stop-color="#DEB579" style="stop-color:#DEB579;stop-color:color(display-p3 0.8706 0.7098 0.4745);stop-opacity:1;"/>
<stop offset="1" stop-color="#B28E37" style="stop-color:#B28E37;stop-color:color(display-p3 0.6993 0.5570 0.2157);stop-opacity:1;"/>
</linearGradient>
<linearGradient id="paint17_linear_1973_62058" x1="43.3777" y1="25.657" x2="48.4317" y2="30.9242" gradientUnits="userSpaceOnUse">
<stop stop-color="#DCA931" style="stop-color:#DCA931;stop-color:color(display-p3 0.8623 0.6632 0.1913);stop-opacity:1;"/>
<stop offset="0.509615" stop-color="#DEB579" style="stop-color:#DEB579;stop-color:color(display-p3 0.8706 0.7098 0.4745);stop-opacity:1;"/>
<stop offset="1" stop-color="#B28E37" style="stop-color:#B28E37;stop-color:color(display-p3 0.6993 0.5570 0.2157);stop-opacity:1;"/>
</linearGradient>
<linearGradient id="paint18_linear_1973_62058" x1="20.5588" y1="45.552" x2="22.9489" y2="49.7206" gradientUnits="userSpaceOnUse">
<stop stop-color="#DCA931" style="stop-color:#DCA931;stop-color:color(display-p3 0.8623 0.6632 0.1913);stop-opacity:1;"/>
<stop offset="0.509615" stop-color="#DEB579" style="stop-color:#DEB579;stop-color:color(display-p3 0.8706 0.7098 0.4745);stop-opacity:1;"/>
<stop offset="1" stop-color="#B28E37" style="stop-color:#B28E37;stop-color:color(display-p3 0.6993 0.5570 0.2157);stop-opacity:1;"/>
</linearGradient>
<linearGradient id="paint19_linear_1973_62058" x1="23.2529" y1="46.8079" x2="28.3069" y2="52.0751" gradientUnits="userSpaceOnUse">
<stop stop-color="#DCA931" style="stop-color:#DCA931;stop-color:color(display-p3 0.8623 0.6632 0.1913);stop-opacity:1;"/>
<stop offset="0.509615" stop-color="#DEB579" style="stop-color:#DEB579;stop-color:color(display-p3 0.8706 0.7098 0.4745);stop-opacity:1;"/>
<stop offset="1" stop-color="#B28E37" style="stop-color:#B28E37;stop-color:color(display-p3 0.6993 0.5570 0.2157);stop-opacity:1;"/>
</linearGradient>
<linearGradient id="paint20_linear_1973_62058" x1="7.80347" y1="35.151" x2="18.0298" y2="49.398" gradientUnits="userSpaceOnUse">
<stop stop-color="#DCA931" style="stop-color:#DCA931;stop-color:color(display-p3 0.8623 0.6632 0.1913);stop-opacity:1;"/>
<stop offset="0.509615" stop-color="#DEB579" style="stop-color:#DEB579;stop-color:color(display-p3 0.8706 0.7098 0.4745);stop-opacity:1;"/>
<stop offset="1" stop-color="#B28E37" style="stop-color:#B28E37;stop-color:color(display-p3 0.6993 0.5570 0.2157);stop-opacity:1;"/>
</linearGradient>
<linearGradient id="paint21_linear_1973_62058" x1="9.02466" y1="36.1183" x2="19.7184" y2="50.504" gradientUnits="userSpaceOnUse">
<stop stop-color="#DCA931" style="stop-color:#DCA931;stop-color:color(display-p3 0.8623 0.6632 0.1913);stop-opacity:1;"/>
<stop offset="0.509615" stop-color="#DEB579" style="stop-color:#DEB579;stop-color:color(display-p3 0.8706 0.7098 0.4745);stop-opacity:1;"/>
<stop offset="1" stop-color="#B28E37" style="stop-color:#B28E37;stop-color:color(display-p3 0.6993 0.5570 0.2157);stop-opacity:1;"/>
</linearGradient>
<linearGradient id="paint22_linear_1973_62058" x1="3.47168" y1="31.261" x2="5.86178" y2="35.4296" gradientUnits="userSpaceOnUse">
<stop stop-color="#DCA931" style="stop-color:#DCA931;stop-color:color(display-p3 0.8623 0.6632 0.1913);stop-opacity:1;"/>
<stop offset="0.509615" stop-color="#DEB579" style="stop-color:#DEB579;stop-color:color(display-p3 0.8706 0.7098 0.4745);stop-opacity:1;"/>
<stop offset="1" stop-color="#B28E37" style="stop-color:#B28E37;stop-color:color(display-p3 0.6993 0.5570 0.2157);stop-opacity:1;"/>
</linearGradient>
<linearGradient id="paint23_linear_1973_62058" x1="6.16577" y1="32.5173" x2="11.2198" y2="37.7846" gradientUnits="userSpaceOnUse">
<stop stop-color="#DCA931" style="stop-color:#DCA931;stop-color:color(display-p3 0.8623 0.6632 0.1913);stop-opacity:1;"/>
<stop offset="0.509615" stop-color="#DEB579" style="stop-color:#DEB579;stop-color:color(display-p3 0.8706 0.7098 0.4745);stop-opacity:1;"/>
<stop offset="1" stop-color="#B28E37" style="stop-color:#B28E37;stop-color:color(display-p3 0.6993 0.5570 0.2157);stop-opacity:1;"/>
</linearGradient>
</defs>
</svg>
