<svg width="24" height="24" viewBox="0 0 24 24" fill="none" xmlns="http://www.w3.org/2000/svg">
<g clip-path="url(#clip0_2478_3298)">
<path d="M9 17V18C9 18.7956 9.31607 19.5587 9.87868 20.1213C10.4413 20.6839 11.2044 21 12 21C12.7956 21 13.5587 20.6839 14.1213 20.1213C14.6839 19.5587 15 18.7956 15 18V17" stroke="#4B5563" style="stroke:#4B5563;stroke:color(display-p3 0.2941 0.3333 0.3882);stroke-opacity:1;" stroke-width="1.5" stroke-linecap="round" stroke-linejoin="round"/>
<path d="M12.271 2.26367C12.9006 2.32611 13.4925 2.60444 13.9438 3.05566C14.2094 3.32122 14.4122 3.63642 14.5483 3.97852C14.2182 4.54225 14.0283 5.18229 14.0024 5.84375C13.8964 5.78583 13.7888 5.72958 13.6792 5.67773C13.4172 5.5537 13.2495 5.28991 13.2495 5C13.2495 4.66848 13.1177 4.35063 12.8833 4.11621C12.6489 3.8819 12.3309 3.75 11.9995 3.75C11.6681 3.75009 11.3501 3.88187 11.1157 4.11621C10.8814 4.35061 10.7495 4.66856 10.7495 5L10.7417 5.10742C10.7061 5.35387 10.5492 5.56928 10.3198 5.67773C9.29464 6.16259 8.42057 6.91773 7.7915 7.86133C7.16477 8.80149 6.80478 9.89406 6.74951 11.0225V14C6.74951 14.03 6.74725 14.06 6.74365 14.0898C6.65428 14.8281 6.39346 15.5355 5.98096 16.1543C5.95922 16.1869 5.93509 16.218 5.9126 16.25H18.0864C18.0639 16.218 18.0398 16.1869 18.0181 16.1543C17.6056 15.5356 17.3447 14.8281 17.2554 14.0898C17.2518 14.06 17.2495 14.03 17.2495 14V11.0225C17.2308 10.6399 17.1737 10.2623 17.0864 9.89258C17.3835 9.96229 17.6894 9.99997 17.9995 10C18.2128 10 18.4244 9.98155 18.6323 9.94824C18.6929 10.2831 18.7325 10.6226 18.7485 10.9648C18.7491 10.9766 18.7495 10.9883 18.7495 11V13.9473C18.8148 14.4388 18.9909 14.9094 19.2661 15.3223C19.5483 15.7455 19.9261 16.0969 20.3687 16.3477C20.665 16.5155 20.8119 16.862 20.7251 17.1914C20.6382 17.5206 20.34 17.75 19.9995 17.75H3.99951C3.65912 17.7498 3.36075 17.5206 3.27393 17.1914C3.18722 16.8622 3.33418 16.5155 3.63037 16.3477C4.07299 16.097 4.45072 15.7455 4.73291 15.3223C5.00816 14.9094 5.1842 14.4388 5.24951 13.9473V11C5.24951 10.9883 5.24994 10.9766 5.25049 10.9648C5.31643 9.56003 5.76338 8.19948 6.54346 7.0293C7.24363 5.97904 8.18893 5.11779 9.29443 4.51758C9.39251 3.96765 9.65481 3.4561 10.0552 3.05566C10.5708 2.54002 11.2703 2.25009 11.9995 2.25L12.271 2.26367Z" fill="#4B5563" style="fill:#4B5563;fill:color(display-p3 0.2941 0.3333 0.3882);fill-opacity:1;"/>
<path d="M15 6.5C15 7.16304 15.2634 7.79893 15.7322 8.26777C16.2011 8.73661 16.837 9 17.5 9C18.163 9 18.7989 8.73661 19.2678 8.26777C19.7366 7.79893 20 7.16304 20 6.5C20 5.83696 19.7366 5.20107 19.2678 4.73223C18.7989 4.26339 18.163 4 17.5 4C16.837 4 16.2011 4.26339 15.7322 4.73223C15.2634 5.20107 15 5.83696 15 6.5Z" fill="#D92B2B" style="fill:#D92B2B;fill:color(display-p3 0.8510 0.1686 0.1686);fill-opacity:1;"/>
</g>
<defs>
<clipPath id="clip0_2478_3298">
<rect width="24" height="24" fill="white" style="fill:white;fill-opacity:1;"/>
</clipPath>
</defs>
</svg>
