<svg width="100" height="100" viewBox="0 0 100 100" fill="none" xmlns="http://www.w3.org/2000/svg">
<g clip-path="url(#clip0_3034_61243)">
<path d="M48.275 88.0583C41.9667 80.9458 31.25 66.4583 31.25 50C31.25 45.6708 32 41.4708 33.2167 37.5H89.7458C90.5875 40.1708 91.2333 42.9542 91.4542 45.8333C91.5667 47.2708 91.6708 49.6792 91.5958 51.6083C94.2667 56.0125 95.8333 61.1542 95.8333 66.6667C95.8333 67.9875 95.7125 69.2833 95.5417 70.5583C98.3792 64.2833 100 57.3375 100 50C100 22.4292 77.5708 0 50 0C22.4292 0 0 22.4292 0 50C0 77.5708 22.4292 100 50 100C57.3375 100 64.2833 98.3792 70.5583 95.5417C69.2833 95.7125 67.9875 95.8333 66.6667 95.8333C58.9125 95.8333 53.1667 92.9625 48.275 88.0583ZM50.0042 10.0625C53.3958 13.6625 59.2 20.5042 63.4583 29.1708H36.575C40.8458 20.4958 46.6208 13.6542 50.0042 10.0625ZM86.0292 29.1708H72.6C69.3125 21.3417 64.7708 14.6875 60.8542 9.82083C71.5708 12.7208 80.5792 19.775 86.0292 29.1708ZM39.1167 9.825C35.2 14.6875 30.6833 21.3542 27.4083 29.1667H13.9708C19.4208 19.7792 28.4125 12.7292 39.1167 9.825ZM10.2542 37.5H24.5958C23.5708 41.4833 22.9167 45.6583 22.9167 50C22.9167 54.3417 23.5708 58.5167 24.5958 62.5H10.2542C9.00833 58.55 8.33333 54.3542 8.33333 50C8.33333 45.6458 9.0125 41.45 10.2542 37.5ZM13.9708 70.8333H27.4083C30.6875 78.6458 35.2 85.3125 39.1167 90.175C28.4125 87.2708 19.4167 80.2167 13.9708 70.8333ZM87.5 66.6667C87.5 55.1792 78.1542 45.8333 66.6667 45.8333C55.1792 45.8333 45.8333 55.1792 45.8333 66.6667C45.8333 78.1542 55.1792 87.5 66.6667 87.5C70.9042 87.5 74.8417 86.2125 78.1375 84.0292L93.9375 99.8292L99.8292 93.9375L84.0292 78.1375C86.2125 74.8417 87.5 70.9042 87.5 66.6667ZM66.6667 79.1667C59.775 79.1667 54.1667 73.5583 54.1667 66.6667C54.1667 59.775 59.775 54.1667 66.6667 54.1667C73.5583 54.1667 79.1667 59.775 79.1667 66.6667C79.1667 73.5583 73.5583 79.1667 66.6667 79.1667Z" fill="#BAC3D1"/>
</g>
<defs>
<clipPath id="clip0_3034_61243">
<rect width="100" height="100" fill="white"/>
</clipPath>
</defs>
</svg>
