<svg width="100" height="100" viewBox="0 0 100 100" fill="none" xmlns="http://www.w3.org/2000/svg">
<g clip-path="url(#clip0_1800_8707)">
<path d="M12.5 50.0002C12.5 54.9248 13.47 59.8012 15.3545 64.3509C17.2391 68.9006 20.0013 73.0345 23.4835 76.5167C26.9657 79.9989 31.0997 82.7612 35.6494 84.6457C40.1991 86.5303 45.0754 87.5002 50 87.5002C54.9246 87.5002 59.8009 86.5303 64.3506 84.6457C68.9003 82.7612 73.0343 79.9989 76.5165 76.5167C79.9987 73.0345 82.7609 68.9006 84.6455 64.3509C86.53 59.8012 87.5 54.9248 87.5 50.0002C87.5 45.0757 86.53 40.1993 84.6455 35.6496C82.7609 31.0999 79.9987 26.9659 76.5165 23.4837C73.0343 20.0015 68.9003 17.2393 64.3506 15.3548C59.8009 13.4702 54.9246 12.5002 50 12.5002C45.0754 12.5002 40.1991 13.4702 35.6494 15.3548C31.0997 17.2393 26.9657 20.0015 23.4835 23.4837C20.0013 26.9659 17.2391 31.0999 15.3545 35.6496C13.47 40.1993 12.5 45.0757 12.5 50.0002Z" stroke="#006CEB" stroke-width="8" stroke-linecap="round" stroke-linejoin="round"/>
<path d="M37.5 50.0001L45.8333 58.3334L62.5 41.6667" stroke="#006CEB" stroke-width="8" stroke-linecap="round" stroke-linejoin="round"/>
</g>
<defs>
<clipPath id="clip0_1800_8707">
<rect width="100" height="100" fill="white"/>
</clipPath>
</defs>
</svg>
